<?xml version="1.0" encoding="iso-8859-1"?>
<!-- Generator: Adobe Illustrator 19.0.0, SVG Export Plug-In . SVG Version: 6.00 Build 0)  -->
<svg version="1.1" id="Capa_1" fill="white" xmlns="http://www.w3.org/2000/svg" xmlns:xlink="http://www.w3.org/1999/xlink" x="0px" y="0px"
	 viewBox="0 0 496 496" style="enable-background:new 0 0 496 496;" xml:space="preserve">
<g>
	<g>
		<g>
			<path d="M144,472h128c4.418,0,8-3.582,8-8V168c0-4.418-3.582-8-8-8H144c-4.418,0-8,3.582-8,8v296
				C136,468.418,139.582,472,144,472z M152,176h112v280H152V176z"/>
			<path d="M208,208c-22.091,0-40,17.909-40,40v136c0.026,22.08,17.92,39.974,40,40c22.08-0.026,39.974-17.92,40-40V248
				C248,225.909,230.091,208,208,208z M208,408c-13.255,0-24-10.745-24-24s10.745-24,24-24s24,10.745,24,24S221.255,408,208,408z
				 M232,352.208c-14.13-10.941-33.87-10.941-48,0v-72.416c14.13,10.941,33.87,10.941,48,0V352.208z M208,272
				c-13.255,0-24-10.745-24-24s10.745-24,24-24s24,10.745,24,24S221.255,272,208,272z"/>
			<path d="M408,256v-56c0-4.418-3.582-8-8-8h-16v-8h16c4.418,0,8-3.582,8-8v-56c0-4.418-3.582-8-8-8h-16c0-13.255-10.745-24-24-24
				H224V64c0-4.418-3.582-8-8-8h-64c-4.418,0-8,3.582-8,8v24h-8c-13.255,0-24,10.745-24,24v360c0,13.255,10.745,24,24,24h224
				c13.255,0,24-10.745,24-24V264h16C404.418,264,408,260.418,408,256z M384,128h8v40h-8V128z M160,72h48v16h-48V72z M328,480H136
				c-4.418,0-8-3.582-8-8V152h200V480z M328,136H128v-24c0-4.418,3.582-8,8-8h192V136z M368,472c0,4.418-3.582,8-8,8h-16V104h16
				c4.418,0,8,3.582,8,8V472z M392,248h-8v-40h8V248z"/>
			<path d="M448,432c4.418,0,8-3.582,8-8v-24c22.08-0.026,39.974-17.92,40-40v-88c-0.034-19.066-13.504-35.464-32.2-39.2
				c1.216-26.208,0.392-110.216-53.856-170.4C372.728,21.152,318.256,0.168,248.072,0H248h-0.704H247.2
				C177.008,0.152,122.544,21.136,85.32,62.4c-54.4,60.28-55.072,144.52-53.84,170.528C13.107,236.933,0.005,253.195,0,272v88
				c0.026,22.08,17.92,39.974,40,40v16c0,8.837,7.163,16,16,16h24v16H24c-8.837,0-16,7.163-16,16v8c0,8.837,7.163,16,16,16h24
				c0,4.418,3.582,8,8,8s8-3.582,8-8v-8c0-4.418-3.582-8-8-8H24v-8h56c8.837,0,16-7.163,16-16v-16c0-8.837-7.163-16-16-16H56v-16h16
				c4.418,0,8-3.582,8-8V240c0-4.418-3.582-8-8-8H47.512c-0.968-24.112,0-103.72,49.72-158.856
				C131.36,35.296,181.976,16.08,247.648,16c65.6,0.064,116.2,19.248,150.336,57.04c49.704,55.048,50.736,134.816,49.784,158.96H424
				c-4.418,0-8,3.582-8,8v152c0,4.418,3.582,8,8,8h16v16h-24c-8.837,0-16,7.163-16,16v8c0,8.837,7.163,16,16,16h56v16h-24
				c-8.837,0-16,7.163-16,16c0,4.418,3.582,8,8,8s8-3.582,8-8h24c8.837,0,16-7.163,16-16v-16c0-8.837-7.163-16-16-16h-56v-8H448z
				 M464,249.368c9.582,3.403,15.988,12.464,16,22.632v88c-0.012,10.168-6.418,19.229-16,22.632V249.368z M32,382.632
				c-9.582-3.403-15.988-12.464-16-22.632v-88c0.012-10.168,6.418-19.229,16-22.632V382.632z M48,248h16v136H48V248z M432,384V248
				h16v136H432z"/>
		</g>
	</g>
</g>
<g>
</g>
<g>
</g>
<g>
</g>
<g>
</g>
<g>
</g>
<g>
</g>
<g>
</g>
<g>
</g>
<g>
</g>
<g>
</g>
<g>
</g>
<g>
</g>
<g>
</g>
<g>
</g>
<g>
</g>
</svg>
