<?xml version="1.0" encoding="UTF-8"?>
<svg xmlns="http://www.w3.org/2000/svg" fill="white" width="512" height="512" viewBox="0 0 128 128"><g><path d="M64,17.25A46.75,46.75,0,1,0,110.75,64,46.8,46.8,0,0,0,64,17.25Zm0,90A43.25,43.25,0,1,1,107.25,64,43.3,43.3,0,0,1,64,107.25Z"/><path d="M64,56.683A7.317,7.317,0,1,0,71.317,64,7.325,7.325,0,0,0,64,56.683Zm0,11.134A3.817,3.817,0,1,1,67.817,64,3.821,3.821,0,0,1,64,67.817Z"/><path d="M64,45.548A18.452,18.452,0,1,0,82.452,64,18.473,18.473,0,0,0,64,45.548Zm0,33.4A14.952,14.952,0,1,1,78.952,64,14.968,14.968,0,0,1,64,78.952Z"/><path d="M64,88.065A24.092,24.092,0,0,1,39.935,64a1.75,1.75,0,0,0-3.5,0A27.6,27.6,0,0,0,64,91.565a1.75,1.75,0,0,0,0-3.5Z"/><path d="M64,36.435a1.75,1.75,0,0,0,0,3.5A24.092,24.092,0,0,1,88.065,64a1.75,1.75,0,0,0,3.5,0A27.6,27.6,0,0,0,64,36.435Z"/><path d="M64,27.132a1.75,1.75,0,0,0,0,3.5A33.406,33.406,0,0,1,97.368,64a1.75,1.75,0,0,0,3.5,0A36.91,36.91,0,0,0,64,27.132Z"/><path d="M64,97.368A33.406,33.406,0,0,1,30.632,64a1.75,1.75,0,0,0-3.5,0A36.91,36.91,0,0,0,64,100.868a1.75,1.75,0,0,0,0-3.5Z"/></g></svg>
